<svg width="560" height="180" viewBox="0 0 560 180" fill="none" xmlns="http://www.w3.org/2000/svg">
  <defs>
    <linearGradient id="houseBody" x1="36" y1="32" x2="156" y2="156" gradientUnits="userSpaceOnUse">
      <stop offset="0" stop-color="#12B4E8"/>
      <stop offset="1" stop-color="#1E40AF"/>
    </linearGradient>
    <linearGradient id="roof" x1="44" y1="18" x2="130" y2="90" gradientUnits="userSpaceOnUse">
      <stop offset="0" stop-color="#FF7B7B"/>
      <stop offset="1" stop-color="#FF2D2D"/>
    </linearGradient>
  </defs>

  <rect x="4" y="4" width="172" height="172" rx="40" fill="#0E172A" fill-opacity="0.08"/>
  <path d="M30 88L90 32L150 88V150C150 158.837 142.837 166 134 166H46C37.1634 166 30 158.837 30 150V88Z" fill="url(#houseBody)"/>
  <path d="M18 88L90 18L162 88L150 99L90 42L30 99L18 88Z" fill="url(#roof)"/>
  <rect x="78" y="78" width="24" height="24" rx="4" fill="#E7F4FF"/>
  <line x1="90" y1="78" x2="90" y2="102" stroke="#60A5FA" stroke-width="2"/>
  <line x1="78" y1="90" x2="102" y2="90" stroke="#60A5FA" stroke-width="2"/>

  <circle cx="56" cy="126" r="14" fill="#F8FAFC"/>
  <circle cx="84" cy="140" r="18" fill="#FACC15"/>
  <circle cx="112" cy="140" r="18" fill="#F97316"/>
  <circle cx="138" cy="126" r="14" fill="#E2E8F0"/>

  <text x="192" y="88" font-family="Brush Script MT, Segoe Script, cursive" font-size="64" font-weight="700" fill="#FF2D2D">Perfectos</text>
  <text x="192" y="138" font-family="Arial, Helvetica, sans-serif" font-size="54" font-weight="800" fill="#1E3A8A">Desconocidos</text>
</svg>
